<?xml version="1.0" encoding="UTF-8"?>
<svg xmlns="http://www.w3.org/2000/svg" id="Layer_1" data-name="Layer 1" viewBox="0 0 328.03 325">
  <defs>
    <style>.cls-1{fill:#a99381;}.cls-2{fill:#ffa600;}.cls-3{fill:#ffdf40;}</style>
  </defs>
  <path class="cls-1" d="M85.64,243.32a12.26,12.26,0,0,0-2.08-.23c-.58-.12-1.28-.12-1.86-.24-1.27-.12-2.43-.12-3.59-.12a37.49,37.49,0,0,0-12.18,1.76c-6.62,2.23-10.1,6.91-8.24,11.13.81,2.11,3.13,4,6.15,5.39a22.36,22.36,0,0,0,5.1,1.41,23,23,0,0,0,5.69.11,24.92,24.92,0,0,0,5.8-1.52,21.71,21.71,0,0,0,5.45-3.51c3.36-2.82,6.14-7,8.12-12.66-1.4-.35-2.9-.7-4.3-.93s-2.78-.47-4.06-.59Z" transform="translate(-0.98 -1.5)"></path>
  <path class="cls-1" d="M72.77,232.19c-.7-.23-1.39-.59-2-.82a16.73,16.73,0,0,0-2-.94c-1.28-.58-2.56-1.05-3.72-1.52a48.69,48.69,0,0,0-7-2,44.14,44.14,0,0,0-6.38-.94,27.18,27.18,0,0,0-5.45.12,15.38,15.38,0,0,0-7.88,3.16A5.88,5.88,0,0,0,36.35,235c.81,4.34,7,9.14,14.5,9.84a20.37,20.37,0,0,0,11.48-2.34,29.11,29.11,0,0,0,10.44-10.31Z" transform="translate(-0.98 -1.5)"></path>
  <path class="cls-1" d="M42.73,222.82c4.06-1.17,8-3.63,11.94-7.5a64.33,64.33,0,0,0-6.61-4.69c-1-.7-2.08-1.29-3.13-1.87s-2.09-1.06-3-1.52-2.09-.82-3-1.18a27.29,27.29,0,0,0-2.78-.82,22.31,22.31,0,0,0-5.22-.93c-6.5-.59-11.14,2.11-11.26,6.32a11.48,11.48,0,0,0,3.25,6.92,19.4,19.4,0,0,0,8.47,5.15,17.27,17.27,0,0,0,5.57.94,20.61,20.61,0,0,0,5.8-.82Z" transform="translate(-0.98 -1.5)"></path>
  <path class="cls-1" d="M27.65,199.62a27.34,27.34,0,0,0,12.76-4.8c-7.08-8.55-14.15-13.24-20.3-15s-11-.12-11.83,3.87c-.47,2,.35,4.57,1.74,7a16.34,16.34,0,0,0,2.9,3.63A25.62,25.62,0,0,0,17,197.28a19.15,19.15,0,0,0,10.67,2.34Z" transform="translate(-0.98 -1.5)"></path>
  <path class="cls-1" d="M30.55,172c-5.11-9.49-10.79-15.35-16.24-18.16S4,151.7,2.48,155.22a9.55,9.55,0,0,0,.23,6.91,18.52,18.52,0,0,0,15,11.72A24.86,24.86,0,0,0,30.55,172Z" transform="translate(-0.98 -1.5)"></path>
  <path class="cls-1" d="M13,146.78a25.54,25.54,0,0,0,12.53.71,48.09,48.09,0,0,0-2.44-6.92,41.88,41.88,0,0,0-2.9-5.62,28.66,28.66,0,0,0-6.61-7.61c-4.64-3.64-9.39-4-11.48-.82S.74,136,4.8,140.93A17.82,17.82,0,0,0,13,146.78Z" transform="translate(-0.98 -1.5)"></path>
  <path class="cls-1" d="M13.84,119.37a22.76,22.76,0,0,0,11.6,3,41,41,0,0,0-1-6.92,29,29,0,0,0-1.62-5.85,28.74,28.74,0,0,0-4.88-8.44c-3.71-4.33-8.11-5.51-10.67-2.93s-3,8.67-.11,14.06a17,17,0,0,0,6.72,7Z" transform="translate(-0.98 -1.5)"></path>
  <path class="cls-1" d="M19.88,92.78a24.26,24.26,0,0,0,10.44,5c1-9.49-.47-16.63-3.14-21.44s-6.61-6.67-9.39-4.68a5.28,5.28,0,0,0-2,2,12.45,12.45,0,0,0-1.16,3.16,13.29,13.29,0,0,0-.35,3.87,18.35,18.35,0,0,0,.58,4.22,18.05,18.05,0,0,0,5,7.85Z" transform="translate(-0.98 -1.5)"></path>
  <path class="cls-1" d="M31.24,67.94a22.16,22.16,0,0,0,8.7,6.79,48.6,48.6,0,0,0,1.63-6.21A26.84,26.84,0,0,0,42,65.71c.12-.93.12-1.87.23-2.69a24.86,24.86,0,0,0-1.16-8.91c-1.62-5-5-7.61-7.88-6.32S27.53,54,28,59.62a16.28,16.28,0,0,0,3.24,8.32Z" transform="translate(-0.98 -1.5)"></path>
  <path class="cls-1" d="M54.09,54.11C58.39,46.5,59.78,39.94,59.2,35A10.84,10.84,0,0,0,57,29.28a4.17,4.17,0,0,0-4.06-1.76,7.83,7.83,0,0,0-4.4,3.16,16,16,0,0,0-2.67,6.92A16.92,16.92,0,0,0,47.25,46a21.91,21.91,0,0,0,6.84,8.08Z" transform="translate(-0.98 -1.5)"></path>
  <path class="cls-1" d="M72.19,36.89c1.39-1.52,2.55-3,3.71-4.57A27.17,27.17,0,0,0,78.45,28a23.42,23.42,0,0,0,2.32-7.85c.47-4.69-1.39-8.08-4.4-8.2a6.59,6.59,0,0,0-4.64,2.11A12.49,12.49,0,0,0,67.9,19.9a13.15,13.15,0,0,0-.81,3.75A14.11,14.11,0,0,0,67.43,28a21.69,21.69,0,0,0,4.76,8.9Z" transform="translate(-0.98 -1.5)"></path>
  <path class="cls-1" d="M101.19,17a20.69,20.69,0,0,0,2.32-3.52,13,13,0,0,0,1.39-3.28c1.39-4.22.35-7.85-2.32-8.55S95.5,3.15,93.07,7.25A14,14,0,0,0,91,14.63,20.1,20.1,0,0,0,93.53,24a35.51,35.51,0,0,0,7.66-7Z" transform="translate(-0.98 -1.5)"></path>
  <path class="cls-1" d="M91.1,230.2A23,23,0,0,0,97,236.64l.58.35.23-.58a13.65,13.65,0,0,0,.93-1.88,30.74,30.74,0,0,0,2.79-12.42,29.92,29.92,0,0,0-.58-4.68,13,13,0,0,0-1.28-3.4c-1.16-2.34-3-3.4-4.87-3.16A6.64,6.64,0,0,0,91,213.8a15.38,15.38,0,0,0-2.09,9.84,18.16,18.16,0,0,0,2.21,6.56Z" transform="translate(-0.98 -1.5)"></path>
  <path class="cls-1" d="M73.7,219.54a12.37,12.37,0,0,0,.93,1.75A15.63,15.63,0,0,0,77.29,225l.35.59.47-.59a15.42,15.42,0,0,0,1.27-1.64,26.92,26.92,0,0,0,5.11-11.13,17,17,0,0,0-.12-8.08c-.7-2.46-2.2-4-4.06-4.1a7.05,7.05,0,0,0-4.29,2,14.39,14.39,0,0,0-3.83,8.9,15.38,15.38,0,0,0,.81,6.68,7.72,7.72,0,0,0,.7,1.88Z" transform="translate(-0.98 -1.5)"></path>
  <path class="cls-1" d="M58.5,205.36a41.44,41.44,0,0,0,1.74,4.1l.35.59.58-.47a8.11,8.11,0,0,0,1.51-1.29,26.13,26.13,0,0,0,7.07-9.49,15.45,15.45,0,0,0,1.4-7.73,7.92,7.92,0,0,0-.93-3.16A3.69,3.69,0,0,0,68,186.38a5.93,5.93,0,0,0-4.4.94,14.89,14.89,0,0,0-5.46,7.61,13,13,0,0,0-.46,3,13,13,0,0,0,0,3.52,29.11,29.11,0,0,0,.81,3.86Z" transform="translate(-0.98 -1.5)"></path>
  <path class="cls-1" d="M46.32,188.26c.12.7.35,1.4.58,2.22l.24.59.58-.24c.58-.35,1.15-.58,1.73-.93a24.81,24.81,0,0,0,8.47-7.5,15.7,15.7,0,0,0,2.79-7.15c.34-2.57-.47-4.45-2-5.27a6.32,6.32,0,0,0-4.4.12,13.28,13.28,0,0,0-6.73,6.21A18,18,0,0,0,46,182.4a19.57,19.57,0,0,0,0,3.75l.34,2.11Z" transform="translate(-0.98 -1.5)"></path>
  <path class="cls-1" d="M37.62,169.75l.7-.24c.58-.12,1.16-.35,1.74-.47a23,23,0,0,0,9.51-5.5,16.36,16.36,0,0,0,4.06-6.21,6.07,6.07,0,0,0,.23-3.17,3.11,3.11,0,0,0-1.27-2.22,5.23,5.23,0,0,0-4.18-.82A12.37,12.37,0,0,0,41,155.8c-2.32,2.82-4,7.27-3.48,13.24Z" transform="translate(-0.98 -1.5)"></path>
  <path class="cls-1" d="M35.07,146.55a21.86,21.86,0,0,0,10-3.4,14.29,14.29,0,0,0,5.1-5.15,7.54,7.54,0,0,0,.81-2.93,3.69,3.69,0,0,0-.81-2.46,4.84,4.84,0,0,0-3.83-1.52,11.62,11.62,0,0,0-7.88,3c-2.67,2.23-5.11,6.09-5.69,11.83l-.11.71h.69a8.49,8.49,0,0,0,1.74-.12Z" transform="translate(-0.98 -1.5)"></path>
  <path class="cls-1" d="M32.52,122.42l-.23.7h.58a8.65,8.65,0,0,0,1.74.23,22.16,22.16,0,0,0,10.09-1.17,14,14,0,0,0,5.68-4,6.34,6.34,0,0,0,1.28-2.7,3.56,3.56,0,0,0-.23-2.46,5.26,5.26,0,0,0-3.37-2.22,11.76,11.76,0,0,0-8,1.4A13.84,13.84,0,0,0,35.77,116a17.58,17.58,0,0,0-3.25,6.45Z" transform="translate(-0.98 -1.5)"></path>
  <path class="cls-1" d="M41.22,93.71c-.7.71-1.51,1.41-2.32,2.35a20.23,20.23,0,0,0-2,3.16l-.35.58.58.24c.58.23,1,.35,1.62.58a20,20,0,0,0,9.63.71,13.11,13.11,0,0,0,6.15-2.7c1.62-1.4,2.43-3.16,2-4.68a4.9,4.9,0,0,0-2.78-2.7A11.4,11.4,0,0,0,46,91a12.46,12.46,0,0,0-2.32,1,14.69,14.69,0,0,0-2.44,1.64Z" transform="translate(-0.98 -1.5)"></path>
  <path class="cls-1" d="M56.3,81.53a11.87,11.87,0,0,0,6.26-1.29c1.86-1,3-2.46,2.79-4.1a4.62,4.62,0,0,0-2.09-3,10.14,10.14,0,0,0-7.19-1.75c-3.14.35-6.85,2-10.21,5.85l-.46.59.58.35a8,8,0,0,0,1.39.82,18.32,18.32,0,0,0,8.93,2.58Z" transform="translate(-0.98 -1.5)"></path>
  <path class="cls-1" d="M74.28,63.72a4.09,4.09,0,0,0,3.36-3.28,4.41,4.41,0,0,0-1.27-3.28,9.78,9.78,0,0,0-6.5-3,15.42,15.42,0,0,0-5,.47,18.24,18.24,0,0,0-5.68,3.05,2.07,2.07,0,0,0-.35.23.38.38,0,0,0-.23.12l.46.47a3.28,3.28,0,0,0,1.16,1,17.47,17.47,0,0,0,7.89,4.22,10.89,10.89,0,0,0,6.15,0Z" transform="translate(-0.98 -1.5)"></path>
  <path class="cls-1" d="M89.12,50c2-.23,3.48-1,3.95-2.46a4.76,4.76,0,0,0-.58-3.39,10.24,10.24,0,0,0-5.57-4.1,9.62,9.62,0,0,0-2.2-.47,9.07,9.07,0,0,0-2.55,0,8,8,0,0,0-2.79.47,12.63,12.63,0,0,0-3.13,1.17l-.58.23.35.59a9.87,9.87,0,0,0,.81,1.17C81,48.84,86,50.13,89.12,50Z" transform="translate(-0.98 -1.5)"></path>
  <path class="cls-1" d="M106.64,39.7c2,.24,3.48-.23,4.18-1.4a4.23,4.23,0,0,0,.11-3.4A9,9,0,0,0,106.76,30a11.53,11.53,0,0,0-4.41-1.52,16.71,16.71,0,0,0-5.8.35l-.7.12.23.58c.12.47.35.94.47,1.29a17.88,17.88,0,0,0,5,6.56,11.33,11.33,0,0,0,5.1,2.34Z" transform="translate(-0.98 -1.5)"></path>
  <path class="cls-1" d="M194.33,252a11.48,11.48,0,0,0,2-.12c.81,0,1.51-.12,2.44-.12s1.85-.11,2.78-.23l3.25-.35a124.48,124.48,0,0,0,15.89-3.28A117,117,0,0,0,240.38,240a117.3,117.3,0,0,0,39.9-34.68A121.32,121.32,0,0,0,302,148.42a122.65,122.65,0,0,0-8.23-60.68A115.22,115.22,0,0,0,280.05,62.9,122.81,122.81,0,0,0,263,44a112.1,112.1,0,0,0-32.13-20.15c-3-1.17-5.57-2.11-7.77-2.81a22.37,22.37,0,0,0-4.41-4.92,23,23,0,0,0-5.8-3.87A21.61,21.61,0,0,0,201.64,10a17.86,17.86,0,0,0-4.64.82,12.42,12.42,0,0,0-3.48,1.87c-2,1.41-3,3.16-2.9,4.8a6.6,6.6,0,0,0,2.78,4.81A20.62,20.62,0,0,0,196.53,24a14.3,14.3,0,0,0,3.95,1.28c5.57,1.29,12.76.82,22-2.69.46.12,1,.35,1.51.47,1.74.7,3.59,1.29,5.68,2.22a108.9,108.9,0,0,1,31.67,19.8,118,118,0,0,1,30,43.12c.46,1.17.93,2.34,1.27,3.51a29.15,29.15,0,0,1,1.28,3.4c.35,1.17.7,2.34,1,3.51l.58,1.88.47,1.75c.35,1.18.58,2.47.93,3.64s.58,2.46.81,3.75c.58,2.34.81,4.92,1.27,7.38a123.1,123.1,0,0,1,.12,30.69,118.33,118.33,0,0,1-21.58,55.53,112.29,112.29,0,0,1-18.55,19.92,107.47,107.47,0,0,1-20.3,13.47,105.14,105.14,0,0,1-19.14,7.5,108,108,0,0,1-15.43,3.05c-1,.11-2.09.23-3,.35s-1.85.11-2.66.11-1.63.12-2.44.24h-5.45s-13-.7-25.64,9.25c-12.64-9.95-25.51-9.25-25.51-9.25H133.9c-.7-.12-1.51-.12-2.32-.24s-1.74-.11-2.79-.11-2-.24-3-.35a114.78,114.78,0,0,1-15.43-3.05,101,101,0,0,1-19-7.5A103.49,103.49,0,0,1,71,223.17a113.25,113.25,0,0,1-18.68-19.92,118.42,118.42,0,0,1-21.57-55.53A123.57,123.57,0,0,1,31,117c.35-2.46.7-5,1.28-7.38.23-1.29.46-2.58.69-3.75s.7-2.46.93-3.64l.47-1.75L35,98.63c.34-1.17.69-2.34,1-3.51s.81-2.34,1.28-3.4.81-2.34,1.27-3.51A116.83,116.83,0,0,1,68.71,45.09a107,107,0,0,1,31.55-19.8c2.09-.93,4.06-1.52,5.68-2.22.58-.12,1-.35,1.63-.47,9.28,3.51,16.35,4,21.92,2.69A13,13,0,0,0,133.43,24a20.74,20.74,0,0,0,3.14-1.76,7.22,7.22,0,0,0,2.9-4.81c0-1.64-1.05-3.39-2.9-4.8a15.25,15.25,0,0,0-3.6-1.87,17.86,17.86,0,0,0-4.64-.82,21.61,21.61,0,0,0-11.25,2.34,25.29,25.29,0,0,0-5.8,3.87,29.75,29.75,0,0,0-4.41,4.92c-2.09.7-4.75,1.64-7.77,2.81A113.59,113.59,0,0,0,67,44a121.79,121.79,0,0,0-17,18.86A115.22,115.22,0,0,0,36.23,87.74,128.23,128.23,0,0,0,28.34,117,123.48,123.48,0,0,0,28,148.42a120.3,120.3,0,0,0,21.8,56.94,115.31,115.31,0,0,0,19,20.62A116.75,116.75,0,0,0,89.7,240a112.64,112.64,0,0,0,19.61,7.85,122,122,0,0,0,16,3.28l3.14.35c1,.12,2,.12,2.78.23s1.74.12,2.44.12a13.5,13.5,0,0,0,2.08.12h3.72A32.67,32.67,0,0,1,159,261c-12.76-1.64-39.32-4.1-40.13,3.05-.93,8.78,1.16,18.16,37.23,2.34-8.58,11.48-15.31,30-15.31,60.1h9.86s-.46-36.32,14.38-58.34c15,22,14.39,58.34,14.39,58.34h9.86c0-30.81-7.08-49.56-15.89-61,37.93,17.11,40.13,7.5,39.2-1.4-.81-7.38-29.69-4.46-41.76-2.82A33.22,33.22,0,0,1,190.62,252Z" transform="translate(-0.98 -1.5)"></path>
  <path class="cls-1" d="M264,244.49A36.73,36.73,0,0,0,252,242.73c-1.16,0-2.44,0-3.71.12-.58.12-1.28.12-1.86.24a11.13,11.13,0,0,0-2,.23c-1.39.12-2.67.35-4.06.59s-2.9.58-4.41.93a28.44,28.44,0,0,0,8.24,12.66,18.15,18.15,0,0,0,5.45,3.51,25.61,25.61,0,0,0,5.68,1.52,22.82,22.82,0,0,0,5.69-.11,22.36,22.36,0,0,0,5.1-1.41c3-1.41,5.34-3.28,6.26-5.39,1.86-4.22-1.74-8.9-8.35-11.13Z" transform="translate(-0.98 -1.5)"></path>
  <path class="cls-1" d="M291.53,229.26a15.38,15.38,0,0,0-7.88-3.16,27.06,27.06,0,0,0-5.46-.12,42.83,42.83,0,0,0-6.26.94,41.75,41.75,0,0,0-7,2c-1.27.47-2.55.94-3.83,1.52a14.65,14.65,0,0,0-1.85.94c-.7.23-1.39.59-2.09.82a29.11,29.11,0,0,0,10.44,10.31,20.76,20.76,0,0,0,11.6,2.34c7.42-.7,13.57-5.5,14.5-9.84a5.75,5.75,0,0,0-2.21-5.74Z" transform="translate(-0.98 -1.5)"></path>
  <path class="cls-1" d="M299.19,204.31a21.28,21.28,0,0,0-5.22.93c-.93.24-1.86.47-2.9.82s-2,.82-2.9,1.18-2.09,1-3,1.52-2.08,1.17-3.24,1.87a62.61,62.61,0,0,0-6.5,4.69,28.25,28.25,0,0,0,11.83,7.5,20.83,20.83,0,0,0,5.92.82,17.1,17.1,0,0,0,5.45-.94,19.4,19.4,0,0,0,8.47-5.15,10.87,10.87,0,0,0,3.24-6.92c0-4.21-4.64-6.91-11.13-6.32Z" transform="translate(-0.98 -1.5)"></path>
  <path class="cls-1" d="M310,179.82c-6.15,1.76-13.23,6.45-20.42,15a27.82,27.82,0,0,0,12.76,4.8A18.94,18.94,0,0,0,313,197.28a18.17,18.17,0,0,0,4.06-2.93,16.34,16.34,0,0,0,2.9-3.63c1.51-2.46,2.21-5,1.74-7-.81-4-5.68-5.63-11.71-3.87Z" transform="translate(-0.98 -1.5)"></path>
  <path class="cls-1" d="M315.78,153.81c-5.57,2.81-11.26,8.67-16.36,18.16a24.86,24.86,0,0,0,12.88,1.88,17.72,17.72,0,0,0,9.62-4.22,17.21,17.21,0,0,0,5.34-7.5c.93-2.58,1.16-5,.35-6.91-1.51-3.52-6.5-4.22-11.83-1.41Z" transform="translate(-0.98 -1.5)"></path>
  <path class="cls-1" d="M316.47,127.34a25.23,25.23,0,0,0-6.61,7.61,43.61,43.61,0,0,0-3,5.62,66.61,66.61,0,0,0-2.43,6.92,25.54,25.54,0,0,0,12.53-.71,17.22,17.22,0,0,0,8.23-5.85c4.06-4.92,4.76-11.37,2.79-14.41-2.21-3.17-7-2.82-11.49.82Z" transform="translate(-0.98 -1.5)"></path>
  <path class="cls-1" d="M312.18,101.21a24.28,24.28,0,0,0-4.87,8.44,37.34,37.34,0,0,0-1.74,5.85,58.33,58.33,0,0,0-1.05,6.92,23.52,23.52,0,0,0,11.72-3,16.93,16.93,0,0,0,6.73-7c2.78-5.39,2.32-11.6-.23-14.06s-7-1.4-10.56,2.93Z" transform="translate(-0.98 -1.5)"></path>
  <path class="cls-1" d="M299.65,97.81a24.26,24.26,0,0,0,10.44-5,17.11,17.11,0,0,0,5-7.85,29.45,29.45,0,0,0,.7-4.22,13.51,13.51,0,0,0-.47-3.87,12.45,12.45,0,0,0-1.16-3.16,4.4,4.4,0,0,0-1.85-2c-2.9-2-6.85,0-9.51,4.68s-4.18,11.95-3.14,21.44Z" transform="translate(-0.98 -1.5)"></path>
  <path class="cls-1" d="M288.05,65.71c.12.82.24,1.88.35,2.81.47,2,.93,4,1.63,6.21a22.5,22.5,0,0,0,8.81-6.79A16.08,16.08,0,0,0,302,59.62c.47-5.62-2.08-10.66-5.1-11.83s-6.38,1.29-8,6.32A25.3,25.3,0,0,0,287.82,63a24.23,24.23,0,0,0,.23,2.69Z" transform="translate(-0.98 -1.5)"></path>
  <path class="cls-1" d="M282.72,46a15.69,15.69,0,0,0,1.39-8.43,16,16,0,0,0-2.67-6.92A7.82,7.82,0,0,0,277,27.52,4.28,4.28,0,0,0,273,29.28a11.93,11.93,0,0,0-2.2,5.74c-.58,4.92.81,11.48,5.1,19.09A20.77,20.77,0,0,0,282.72,46Z" transform="translate(-0.98 -1.5)"></path>
  <path class="cls-1" d="M251.63,28a28.77,28.77,0,0,0,2.55,4.33,41.31,41.31,0,0,0,3.6,4.57,20.35,20.35,0,0,0,4.76-8.9,14.11,14.11,0,0,0,.34-4.34,13.38,13.38,0,0,0-.69-3.75,13.55,13.55,0,0,0-3.83-5.85c-1.62-1.41-3.25-2.23-4.76-2.11-2.9.12-4.75,3.51-4.29,8.2A19.23,19.23,0,0,0,251.63,28Z" transform="translate(-0.98 -1.5)"></path>
  <path class="cls-1" d="M226.46,13.46A31.78,31.78,0,0,0,228.78,17a42,42,0,0,0,7.66,7A20.1,20.1,0,0,0,239,14.63a15.17,15.17,0,0,0-2-7.38c-2.56-4.1-6.85-6.32-9.63-5.62s-3.71,4.33-2.32,8.55a19.65,19.65,0,0,0,1.39,3.28Z" transform="translate(-0.98 -1.5)"></path>
  <path class="cls-1" d="M230.29,214a19.42,19.42,0,0,0-1.28,3.4,29.22,29.22,0,0,0-.46,4.68,28.51,28.51,0,0,0,2.67,12.42,14.79,14.79,0,0,0,.92,1.88l.35.58.47-.35a19.64,19.64,0,0,0,8.23-13,14.58,14.58,0,0,0-2.2-9.84,6.64,6.64,0,0,0-3.83-2.93c-1.86-.24-3.6.82-4.87,3.16Z" transform="translate(-0.98 -1.5)"></path>
  <path class="cls-1" d="M254,202.08a6.55,6.55,0,0,0-4.29-2c-1.86.12-3.25,1.64-4.06,4.1a17,17,0,0,0-.12,8.08,26.92,26.92,0,0,0,5.11,11.13,15.42,15.42,0,0,0,1.27,1.64l.47.59.46-.59a18.84,18.84,0,0,0,2.55-3.75,13.5,13.5,0,0,0,1-1.75c.23-.71.46-1.29.69-1.88a17.27,17.27,0,0,0,.82-6.68,14.44,14.44,0,0,0-3.95-8.9Z" transform="translate(-0.98 -1.5)"></path>
  <path class="cls-1" d="M269.49,190.25a14,14,0,0,0-3.13-2.93,5.85,5.85,0,0,0-4.4-.94,3.41,3.41,0,0,0-2.09,1.53,6.4,6.4,0,0,0-1.05,3.16,16.9,16.9,0,0,0,1.4,7.73,26.13,26.13,0,0,0,7.07,9.49,8.51,8.51,0,0,0,1.62,1.29l.47.47.35-.59a41.44,41.44,0,0,0,1.74-4.1,18.16,18.16,0,0,0,.81-3.86,9.52,9.52,0,0,0,.11-1.76V198a21.69,21.69,0,0,0-.58-3,13.5,13.5,0,0,0-2.32-4.68Z" transform="translate(-0.98 -1.5)"></path>
  <path class="cls-1" d="M280.63,189.9c.46.35,1,.58,1.62.93l.7.24.12-.59c.23-.82.46-1.52.58-2.22a13,13,0,0,0,.34-2.11c.12-1.29.12-2.58.12-3.75a21.1,21.1,0,0,0-1.74-6.09,13.18,13.18,0,0,0-6.61-6.21,6.34,6.34,0,0,0-4.41-.12c-1.51.82-2.44,2.7-2.09,5.27a16.07,16.07,0,0,0,2.9,7.15,23.81,23.81,0,0,0,8.47,7.5Z" transform="translate(-0.98 -1.5)"></path>
  <path class="cls-1" d="M291.77,169.51l.58.24.11-.71c.47-6-1.16-10.42-3.48-13.24a12.06,12.06,0,0,0-7.42-4.68,5.23,5.23,0,0,0-4.18.82,3.58,3.58,0,0,0-1.27,2.22,7.5,7.5,0,0,0,.23,3.17,16.13,16.13,0,0,0,4.06,6.21,24.66,24.66,0,0,0,9.51,5.5c.58.12,1.16.35,1.86.47Z" transform="translate(-0.98 -1.5)"></path>
  <path class="cls-1" d="M296.75,146.67h.58V146c-.69-5.74-3.13-9.6-5.8-11.83a11.42,11.42,0,0,0-7.88-3,5,5,0,0,0-3.83,1.52,3.61,3.61,0,0,0-.7,2.46,5.92,5.92,0,0,0,.81,2.93,14,14,0,0,0,5,5.15,22.34,22.34,0,0,0,10,3.4,9,9,0,0,0,1.85.12Z" transform="translate(-0.98 -1.5)"></path>
  <path class="cls-1" d="M297.57,122.42A19.71,19.71,0,0,0,294.2,116a13.84,13.84,0,0,0-4.29-3.75,11.68,11.68,0,0,0-8-1.4,5.26,5.26,0,0,0-3.37,2.22,3.51,3.51,0,0,0-.23,2.46,6.34,6.34,0,0,0,1.28,2.7,15.76,15.76,0,0,0,5.68,4,22.16,22.16,0,0,0,10.09,1.17,8.65,8.65,0,0,0,1.74-.23h.7Z" transform="translate(-0.98 -1.5)"></path>
  <path class="cls-1" d="M291.07,96.06a22.49,22.49,0,0,0-2.32-2.35,21.59,21.59,0,0,0-2.32-1.64A10.52,10.52,0,0,0,284,91a11.4,11.4,0,0,0-7.77.23,5.27,5.27,0,0,0-2.78,2.7c-.47,1.52.35,3.28,2,4.68a13.11,13.11,0,0,0,6.15,2.7,20.46,20.46,0,0,0,9.74-.71c.47-.23,1.05-.35,1.51-.58l.7-.24-.35-.58a36.11,36.11,0,0,0-2.09-3.16Z" transform="translate(-0.98 -1.5)"></path>
  <path class="cls-1" d="M273.9,71.34a10.14,10.14,0,0,0-7.19,1.75,4.62,4.62,0,0,0-2.09,3c-.11,1.64.93,3,2.79,4.1a12.12,12.12,0,0,0,6.26,1.29A18,18,0,0,0,282.6,79a8,8,0,0,0,1.39-.82l.58-.35-.46-.59c-3.36-3.86-7.08-5.5-10.21-5.85Z" transform="translate(-0.98 -1.5)"></path>
  <path class="cls-1" d="M270.89,57.63a20.15,20.15,0,0,0-5.8-3.05,14.72,14.72,0,0,0-4.87-.47,10.11,10.11,0,0,0-6.62,3,4.41,4.41,0,0,0-1.27,3.28,4.09,4.09,0,0,0,3.48,3.28,10.48,10.48,0,0,0,6,0,18.35,18.35,0,0,0,8-4.22,4.33,4.33,0,0,0,1.05-1l.46-.47a.42.42,0,0,0-.23-.12l-.23-.23Z" transform="translate(-0.98 -1.5)"></path>
  <path class="cls-1" d="M250.7,40.06a8.57,8.57,0,0,0-2.9-.47,9.07,9.07,0,0,0-2.55,0,11.1,11.1,0,0,0-2.2.47,9.44,9.44,0,0,0-5.45,4.1,4.18,4.18,0,0,0-.58,3.39c.46,1.41,2,2.23,3.82,2.46,3.25.12,8.12-1.17,12.3-6.79a4.07,4.07,0,0,0,.81-1.17l.35-.59-.58-.23a11.84,11.84,0,0,0-3-1.17Z" transform="translate(-0.98 -1.5)"></path>
  <path class="cls-1" d="M227.62,28.46A10.92,10.92,0,0,0,223.33,30,8.82,8.82,0,0,0,219,34.9a4.79,4.79,0,0,0,.11,3.4c.82,1.17,2.32,1.64,4.18,1.4a10.84,10.84,0,0,0,5.1-2.34,16.68,16.68,0,0,0,5-6.56,12.54,12.54,0,0,0,.46-1.29l.24-.58-.58-.12a17.27,17.27,0,0,0-5.92-.35Z" transform="translate(-0.98 -1.5)"></path>
  <path d="M95.39,162.48,101.88,147H102l6.38,15.46h-2.2l-4.88-12.42,1.4-.93-5.34,13.35Zm3.83-5.62h5.45l.69,1.76H98.64Zm19.6-6.56a3.93,3.93,0,0,0-1.62-.7,4.52,4.52,0,0,0-1.74-.36,2.93,2.93,0,0,0-1.86.59,1.59,1.59,0,0,0-.81,1.52,2.09,2.09,0,0,0,.46,1.17,3.33,3.33,0,0,0,1.28.82c.46.24.93.47,1.51.71a7.09,7.09,0,0,1,1.39.58,7.5,7.5,0,0,1,1.16.82,2.73,2.73,0,0,1,.81,1.17,4.2,4.2,0,0,1,.35,1.88,3.68,3.68,0,0,1-.58,2.11,4.14,4.14,0,0,1-1.63,1.52,5.84,5.84,0,0,1-2.55.59,11.16,11.16,0,0,1-2-.24,8.75,8.75,0,0,1-1.62-.58,4.92,4.92,0,0,1-1.28-.82l.81-1.53a10.72,10.72,0,0,0,1.16.71c.47.11.81.35,1.28.47a4.32,4.32,0,0,0,2.78,0,4.26,4.26,0,0,0,1.16-.82,2.57,2.57,0,0,0,.47-1.41,2.15,2.15,0,0,0-.47-1.29,2.81,2.81,0,0,0-1-.94,7.09,7.09,0,0,0-1.39-.58c-.47-.24-.93-.35-1.4-.59a8.84,8.84,0,0,1-1.39-.82,4.66,4.66,0,0,1-.93-1.17,3.47,3.47,0,0,1-.34-1.64,2.86,2.86,0,0,1,.58-2,3.48,3.48,0,0,1,1.5-1.41,4.82,4.82,0,0,1,2.21-.58,7.77,7.77,0,0,1,2.55.35,9.43,9.43,0,0,1,2,.94Zm3.13-2.7h9.74v1.88h-3.94v13h-2v-13H122Zm16.82,0a10.11,10.11,0,0,1,2.09.24,6,6,0,0,1,1.74.94,3.21,3.21,0,0,1,1,1.4,5.64,5.64,0,0,1,.47,2,4.8,4.8,0,0,1-.35,1.76,4,4,0,0,1-.81,1.52,5.19,5.19,0,0,1-1.51,1.17,6.77,6.77,0,0,1-2.32.36h-2.21v5.5h-2V147.6Zm.23,7.5a6.14,6.14,0,0,0,1.51-.23,6.26,6.26,0,0,0,.93-.71,3.35,3.35,0,0,0,.46-.93,2.87,2.87,0,0,0,.12-.94,2.54,2.54,0,0,0-.12-.94,3.94,3.94,0,0,0-.58-.93,2,2,0,0,0-.81-.59,2.49,2.49,0,0,0-1.39-.35h-2.21v5.62Zm2.44,1.17,3.94,6.21h-2.32l-3.94-6.21Zm5.68-1.17a8.22,8.22,0,0,1,.58-2.93,7.1,7.1,0,0,1,1.63-2.46,6.83,6.83,0,0,1,2.43-1.64,6.36,6.36,0,0,1,5.8,0,7,7,0,0,1,2.44,1.64,7.22,7.22,0,0,1,1.62,2.46,7.69,7.69,0,0,1,0,5.86,7,7,0,0,1-1.62,2.46,9.08,9.08,0,0,1-2.44,1.64,7.42,7.42,0,0,1-5.8,0,6.83,6.83,0,0,1-2.43-1.64A6.92,6.92,0,0,1,147.7,158a7.69,7.69,0,0,1-.58-2.93Zm2.09,0a7,7,0,0,0,.35,2.23,7,7,0,0,0,3,3,5.92,5.92,0,0,0,2.09.36,6.61,6.61,0,0,0,2.21-.36,4.86,4.86,0,0,0,1.73-1.28,4.59,4.59,0,0,0,1.16-1.76,4.81,4.81,0,0,0,.47-2.23,4.74,4.74,0,0,0-.47-2.22A6.14,6.14,0,0,0,158.6,151a3.55,3.55,0,0,0-1.73-1.17,4.73,4.73,0,0,0-2.21-.47,4.66,4.66,0,0,0-2.2.47,5.56,5.56,0,0,0-1.74,1.17,9.88,9.88,0,0,0-1.16,1.88,6.89,6.89,0,0,0-.35,2.22Zm16.35-7.5h2v13h7.54v1.87h-9.52Zm11.6,7.5a6.38,6.38,0,0,1,.58-2.93,7.1,7.1,0,0,1,1.63-2.46,6.92,6.92,0,0,1,2.43-1.64,5.93,5.93,0,0,1,2.9-.7,6.18,6.18,0,0,1,2.9.7,7,7,0,0,1,2.44,1.64,9.06,9.06,0,0,1,1.62,2.46,7.69,7.69,0,0,1,0,5.86,8.76,8.76,0,0,1-1.62,2.46,9.08,9.08,0,0,1-2.44,1.64,8,8,0,0,1-2.9.59,8.67,8.67,0,0,1-3-.59,7.64,7.64,0,0,1-2.32-1.64,6.92,6.92,0,0,1-1.63-2.46,6.06,6.06,0,0,1-.58-2.93Zm2,0a4.8,4.8,0,0,0,.46,2.23,4.71,4.71,0,0,0,1.16,1.76,8.41,8.41,0,0,0,1.74,1.28,6.93,6.93,0,0,0,4.41,0,8.41,8.41,0,0,0,1.74-1.28,6.81,6.81,0,0,0,1.16-1.76,7,7,0,0,0,.35-2.23,6.89,6.89,0,0,0-.35-2.22,10.41,10.41,0,0,0-1.16-1.88,4.53,4.53,0,0,0-1.86-1.17,4.23,4.23,0,0,0-2.09-.47,4.69,4.69,0,0,0-2.2.47,4.46,4.46,0,0,0-1.74,1.17,4.57,4.57,0,0,0-1.16,1.88,4.74,4.74,0,0,0-.46,2.22Zm28.07,6.09a6,6,0,0,1-.93.59c-.35.12-.7.35-1.16.47l-1.39.35c-.47,0-.93.12-1.4.12a8.81,8.81,0,0,1-3.13-.59,8.55,8.55,0,0,1-2.43-1.52,10.58,10.58,0,0,1-1.63-2.34,8.15,8.15,0,0,1-.46-2.93,10.35,10.35,0,0,1,.58-3.4,7,7,0,0,1,1.62-2.46,6.66,6.66,0,0,1,2.44-1.52,7.82,7.82,0,0,1,2.9-.59,7.69,7.69,0,0,1,2.43.35,10.4,10.4,0,0,1,2,.82l-.7,1.76a9,9,0,0,0-1-.35,2.3,2.3,0,0,0-1.28-.35,3.82,3.82,0,0,0-1.16-.12,7.57,7.57,0,0,0-2.32.35,5,5,0,0,0-1.86,1.17,4.83,4.83,0,0,0-1.16,1.76,7.75,7.75,0,0,0-.46,2.46,6.91,6.91,0,0,0,.46,2.22,5.85,5.85,0,0,0,1.16,1.76,4.92,4.92,0,0,0,1.86,1.06,4.87,4.87,0,0,0,2.32.47,7.8,7.8,0,0,0,1.51-.24,3.36,3.36,0,0,0,1.16-.35v-3h-2.9v-1.87h5Zm3.71-13.59h9.63v1.88h-7.66v4.57h6.84v1.87h-6.84v4.69h8l-.11,1.87h-9.86Zm17.28,0a10.11,10.11,0,0,1,2.09.24,6.8,6.8,0,0,1,1.62.94,3.39,3.39,0,0,1,1.16,1.4,5.58,5.58,0,0,1,.35,2,4.65,4.65,0,0,1-.23,1.76,4,4,0,0,1-.81,1.52,5.83,5.83,0,0,1-1.63,1.17,6.31,6.31,0,0,1-2.32.36h-2.2v5.5h-2V147.6Zm.23,7.5a4.57,4.57,0,0,0,1.4-.23,3.19,3.19,0,0,0,.92-.71c.23-.35.47-.58.47-.93a4,4,0,0,0,.23-.94,2.94,2.94,0,0,0-.23-.94,3.7,3.7,0,0,0-.47-.93,1.8,1.8,0,0,0-.92-.59,2.11,2.11,0,0,0-1.28-.35h-2.32v5.62Zm2.44,1.17,3.83,6.21h-2.32l-3.83-6.21Zm-95.35,58V199.39h3.95a9.28,9.28,0,0,1,3.82.7,6.17,6.17,0,0,1,2.44,1.76,8.41,8.41,0,0,1,1.39,2.46,10.93,10.93,0,0,1,.47,2.69,7.14,7.14,0,0,1-2.21,5.39,9.24,9.24,0,0,1-2.32,1.41,7.74,7.74,0,0,1-2.78.47Zm2-1.88h2.32a7.47,7.47,0,0,0,2.32-.35,4.25,4.25,0,0,0,1.74-1.06,4.85,4.85,0,0,0,1.28-1.75,7.76,7.76,0,0,0,.35-2.35,5.49,5.49,0,0,0-.47-2.46,4.55,4.55,0,0,0-1.16-1.75,7.07,7.07,0,0,0-1.74-1.06,6.58,6.58,0,0,0-2.08-.35h-2.56Zm13.46-13h9.51v1.87h-7.54l-.11,4.57h6.84v1.87h-6.73l-.11,4.69h8v1.88h-10Zm13.34,0h2l-.12,13h7.54v1.88h-9.51Zm24.36,0v14.88h-2V207.7H178.9v6.57h-2V199.39h2v6.44h7.78v-6.44Zm4.29,0h2v14.88h-2ZM155.71,173.5h1.85v14.87h-2Zm19,15.34-11.49-11.71.58.23v11h-2V173H162l11.37,11.71-.47-.12-.11-11.12h2v15.34Z" transform="translate(-0.98 -1.5)"></path>
  <path d="M83.91,107.07a4.82,4.82,0,0,0-3.37,1.29,8,8,0,0,0-2,3.75h-.12c-.11,0-.23,0-.23-.12.12-.82.23-1.88.35-3.28s.12-2.34.12-3a.25.25,0,0,1,.23-.23c.11,0,.11.12.11.23,0,.47.58.71,1.86.71,1.86.11,4.06.11,6.61.11,1.28,0,2.67,0,4.06-.11h2.2a7.48,7.48,0,0,0,1.86-.12,1.07,1.07,0,0,0,.7-.7c0-.12.11-.12.23-.12s.11,0,.11.12c0,.7-.11,1.75-.11,3.16s-.12,2.46-.12,3.28c0,.12-.11.12-.23.12s-.12,0-.23-.12a6.55,6.55,0,0,0-1.51-3.75,4.28,4.28,0,0,0-3.25-1.17,4.62,4.62,0,0,0-1.39.12,1.41,1.41,0,0,0-.58.58,3.91,3.91,0,0,0-.12,1.29v15.35a4.29,4.29,0,0,0,.12,1.4,1.58,1.58,0,0,0,.81.71,8.78,8.78,0,0,0,1.86.11c.11,0,.11.12.11.24s0,.11-.11.11H83v-.35a9.27,9.27,0,0,0,2-.11,1.58,1.58,0,0,0,.81-.71,4.69,4.69,0,0,0,.12-1.4V109.06a3.57,3.57,0,0,0-.12-1.29,1.41,1.41,0,0,0-.58-.58,3.81,3.81,0,0,0-1.27-.12Zm25.4,20.38a10.18,10.18,0,0,1-5.34-1.4,11.16,11.16,0,0,1-3.71-4A11.9,11.9,0,0,1,99,116.67a9.38,9.38,0,0,1,1.74-5.74,10.3,10.3,0,0,1,4.3-3.74,13,13,0,0,1,5.45-1.18,9.28,9.28,0,0,1,5.45,1.53,9.84,9.84,0,0,1,3.71,3.86,10.87,10.87,0,0,1,1.28,5,10.5,10.5,0,0,1-1.63,5.62,12,12,0,0,1-10,5.39Zm1.16-.82a6.14,6.14,0,0,0,3.48-1,7.91,7.91,0,0,0,2.55-3.16,12.89,12.89,0,0,0,.81-4.92,16.09,16.09,0,0,0-.93-5.51,8.53,8.53,0,0,0-2.9-3.75,6.73,6.73,0,0,0-4.29-1.41,6,6,0,0,0-5,2.35,10.21,10.21,0,0,0-1.74,6.32,15.19,15.19,0,0,0,1.05,5.74,9.28,9.28,0,0,0,2.9,4,6.38,6.38,0,0,0,4.06,1.4Zm18.79-2.46a5.32,5.32,0,0,0,.23,1.64,1.79,1.79,0,0,0,.93.59,5.8,5.8,0,0,0,2.2.23c.12,0,.12.12.12.24s0,.11-.12.11h-8.93c-.12,0-.12,0-.12-.11s0-.24.12-.24a6.41,6.41,0,0,0,1.62-.11,1.18,1.18,0,0,0,.58-.71,3.71,3.71,0,0,0,.24-1.4V109.06a3.35,3.35,0,0,0-.24-1.41,1.16,1.16,0,0,0-.58-.7,5.17,5.17,0,0,0-1.62-.23c-.12,0-.12,0-.12-.12s0-.23.12-.23h1.62a20.89,20.89,0,0,0,2.44.11,10.6,10.6,0,0,0,1.74-.11h1.16a5.51,5.51,0,0,1,1.51-.12,8.09,8.09,0,0,1,5.1,1.4,4.94,4.94,0,0,1,2,4.22,5.6,5.6,0,0,1-1.16,3.63,6.67,6.67,0,0,1-2.66,2.11,8.86,8.86,0,0,1-3.37.82,5,5,0,0,1-1.51-.23c-.11,0-.11,0-.11-.12v-.23a.11.11,0,0,1,.11-.12,3.37,3.37,0,0,0,1.16.23,3.45,3.45,0,0,0,2.9-1.52,5.79,5.79,0,0,0,1.16-4,6.82,6.82,0,0,0-1.16-4.1,4.26,4.26,0,0,0-3.36-1.41,3.87,3.87,0,0,0-1.28.12,1.47,1.47,0,0,0-.58.58c0,.36-.11.82-.11,1.41ZM171,126.63a.43.43,0,0,1,.11.24.11.11,0,0,1-.11.11h-5.34c-.46,0-1.39-.82-2.78-2.57s-3-4.22-4.88-7.38h-2.89v7.38a3.75,3.75,0,0,0,.23,1.4,1.07,1.07,0,0,0,.69.71,6.08,6.08,0,0,0,1.63.11V127h-8.24v-.35a5.64,5.64,0,0,0,1.63-.11,1.62,1.62,0,0,0,.81-.71,5.1,5.1,0,0,0,.11-1.4V109.06a4.35,4.35,0,0,0-.11-1.41,1.07,1.07,0,0,0-.7-.7,5.27,5.27,0,0,0-1.62-.23c-.12,0-.12,0-.12-.12s0-.23.12-.23h1.62a20.06,20.06,0,0,0,2.32.11,19,19,0,0,0,2.44-.11h1a4.22,4.22,0,0,1,1.28-.12,6.81,6.81,0,0,1,4.4,1.17,3.59,3.59,0,0,1,1.63,3.16,5.75,5.75,0,0,1-1,3.28,7.14,7.14,0,0,1-2.66,2.23c1.85,2.69,3.24,4.8,4.52,6.33a16,16,0,0,0,3.13,3.16,4.63,4.63,0,0,0,2.79,1Zm-15.89-10.54a9.66,9.66,0,0,0,2,.12,3.78,3.78,0,0,0,3-1.06,5.37,5.37,0,0,0,.93-3.4,5.81,5.81,0,0,0-.93-3.74,3.21,3.21,0,0,0-2.55-1.06,2.51,2.51,0,0,0-1.85.47,2,2,0,0,0-.58,1.64ZM194,126.63c.12,0,.12.12.12.24s0,.11-.12.11h-2c-.93,0-1.62-.11-2-.11-.58,0-1.28.11-2,.11h-1.74c-.12,0-.12,0-.12-.11s0-.24.12-.24a4.22,4.22,0,0,0,1.39-.23.64.64,0,0,0,.46-.7,5.43,5.43,0,0,0-.58-1.64l-2.43-5.16h-8l-1.5,3.63a3.63,3.63,0,0,0-.47,1.76,1.86,1.86,0,0,0,.81,1.76,4.26,4.26,0,0,0,2.32.58c.12,0,.12.12.12.24s0,.11-.12.11h-1.74c-.81,0-1.5-.11-2.08-.11s-1.28.11-2.09.11h-1.74c-.12,0-.23,0-.23-.11a.25.25,0,0,1,.23-.24,3.14,3.14,0,0,0,1.51-.35,4.32,4.32,0,0,0,1.27-1.29c.35-.7.81-1.52,1.39-2.81l7-16.05h.58l8,16.4a16.21,16.21,0,0,0,2,3.28,2,2,0,0,0,1.62.82Zm-16.47-8.55h7.19L181,110.35Zm21.11-11a4.81,4.81,0,0,0-3.36,1.29,8,8,0,0,0-2,3.75h-.12c-.11,0-.23,0-.23-.12.12-.82.23-1.88.35-3.28s.11-2.34.11-3a.26.26,0,0,1,.24-.23c.11,0,.11.12.11.23,0,.47.7.71,1.86.71,1.85.11,4.06.11,6.61.11,1.27,0,2.67,0,4.06-.11h2.2a7.53,7.53,0,0,0,1.86-.12,1,1,0,0,0,.69-.7c.12-.12.12-.12.24-.12s.11,0,.11.12c0,.7-.11,1.75-.11,3.16s-.12,2.46-.12,3.28c0,.12-.12.12-.23.12s-.12,0-.12-.12a6.59,6.59,0,0,0-1.62-3.75,4.28,4.28,0,0,0-3.25-1.17,4.62,4.62,0,0,0-1.39.12,1.35,1.35,0,0,0-.58.58,3.91,3.91,0,0,0-.12,1.29v15.35a4,4,0,0,0,.23,1.4,1.08,1.08,0,0,0,.7.71,9.27,9.27,0,0,0,2,.11V127h-9.05v-.35a9.43,9.43,0,0,0,2-.11,1.28,1.28,0,0,0,.81-.71,4.57,4.57,0,0,0,.23-1.4V109.06a3.29,3.29,0,0,0-.23-1.29,1,1,0,0,0-.58-.58,3.51,3.51,0,0,0-1.28-.12Zm30,14.76H229V122a33,33,0,0,0-.34,4.57v.35c-.12.11-.24.11-.47.11H214.05c-.12,0-.12,0-.12-.11s0-.24.12-.24a6.41,6.41,0,0,0,1.62-.11,1.08,1.08,0,0,0,.7-.71,4.69,4.69,0,0,0,.12-1.4V109.06a4,4,0,0,0-.12-1.41,1.07,1.07,0,0,0-.7-.7,5.17,5.17,0,0,0-1.62-.23c-.12,0-.12,0-.12-.12s0-.23.12-.23h13.57a.31.31,0,0,1,.35.35l.12,4.21c0,.12-.12.12-.24.12h-.23c-.46-2.58-2-3.86-4.52-3.86h-1.28a3.16,3.16,0,0,0-1.74.46,1.89,1.89,0,0,0-.46,1.41v6.79h3.13c2.44,0,3.6-.82,3.6-2.46a.39.39,0,0,1,.23-.11.11.11,0,0,1,.11.11v4.46a9.84,9.84,0,0,1,.12,1.75h-.46c0-2-1.16-2.93-3.6-2.93h-3.13v7.5c0,.82.11,1.29.46,1.53s.7.46,1.39.46h1.63c2.9,0,4.75-1.4,5.57-4.33ZM241,127.22c-.7,0-1.51-.12-2.32-.12-.35,0-.81-.12-1.28-.12h-5.8v-.35a6,6,0,0,0,1.63-.11,1,1,0,0,0,.69-.71,4.26,4.26,0,0,0,.24-1.4V109.06a3.35,3.35,0,0,0-.24-1.41,1,1,0,0,0-.69-.7,4.45,4.45,0,0,0-1.51-.23c-.12,0-.12,0-.12-.12s0-.23.12-.23h1.74a17.27,17.27,0,0,0,2.2.11,21.68,21.68,0,0,0,2.67-.11h2.21a12.29,12.29,0,0,1,5.91,1.28,9.47,9.47,0,0,1,4.06,3.64,9.36,9.36,0,0,1,1.39,5,10.36,10.36,0,0,1-1.5,5.74,9.39,9.39,0,0,1-4,3.75,10.77,10.77,0,0,1-5.45,1.41Zm-.35-.7a7.8,7.8,0,0,0,4.06-1.06,7.4,7.4,0,0,0,2.67-3.28,11.4,11.4,0,0,0,1-5,14,14,0,0,0-.92-5.15,8.75,8.75,0,0,0-2.67-3.63,6,6,0,0,0-3.95-1.41,8.32,8.32,0,0,0-2.08.24,1.27,1.27,0,0,0-1.16.58,1.86,1.86,0,0,0-.35,1.29v14.88a2.43,2.43,0,0,0,.69,2,4.77,4.77,0,0,0,2.67.59Z" transform="translate(-0.98 -1.5)"></path>
  <polygon class="cls-2" points="163.88 45.7 169.1 56.48 180.94 58.24 172.35 66.67 174.44 78.5 163.88 72.88 153.33 78.5 155.42 66.67 146.83 58.24 158.66 56.48 163.88 45.7"></polygon>
  <polygon class="cls-3" points="163.88 63.86 163.88 45.7 169.22 56.6 163.88 63.86"></polygon>
  <polygon class="cls-3" points="163.88 63.86 146.83 58.24 158.66 56.48 163.88 63.86"></polygon>
  <polygon class="cls-3" points="163.88 63.86 153.33 78.5 155.42 66.56 163.88 63.86"></polygon>
  <polygon class="cls-3" points="163.88 63.86 174.44 78.5 163.88 72.88 163.88 63.86"></polygon>
  <polygon class="cls-3" points="163.88 63.86 180.94 58.24 172.35 66.67 163.88 63.86"></polygon>
  <polygon class="cls-2" points="134.19 58.12 138.25 66.2 147.07 67.49 140.69 73.82 142.19 82.72 134.19 78.5 126.3 82.72 127.81 73.82 121.43 67.49 130.25 66.2 134.19 58.12"></polygon>
  <polygon class="cls-3" points="134.19 71.71 134.19 58.12 138.25 66.2 134.19 71.71"></polygon>
  <polygon class="cls-3" points="134.19 71.71 121.43 67.49 130.36 66.2 134.19 71.71"></polygon>
  <polygon class="cls-3" points="134.19 71.71 126.3 82.72 127.81 73.82 134.19 71.71"></polygon>
  <polygon class="cls-3" points="134.19 71.71 142.19 82.72 134.19 78.5 134.19 71.71"></polygon>
  <polygon class="cls-3" points="134.19 71.71 147.07 67.49 140.69 73.82 134.19 71.71"></polygon>
  <polygon class="cls-2" points="193.58 58.12 197.52 66.2 206.34 67.49 199.96 73.82 201.47 82.72 193.58 78.5 185.57 82.72 187.08 73.82 180.7 67.49 189.52 66.2 193.58 58.12"></polygon>
  <polygon class="cls-3" points="193.58 71.71 193.58 58.12 197.52 66.2 193.58 71.71"></polygon>
  <polygon class="cls-3" points="193.58 71.71 180.7 67.49 189.63 66.2 193.58 71.71"></polygon>
  <polygon class="cls-3" points="193.58 71.71 185.57 82.72 187.08 73.82 193.58 71.71"></polygon>
  <polygon class="cls-3" points="193.58 71.71 201.47 82.72 193.46 78.5 193.58 71.71"></polygon>
  <polygon class="cls-3" points="193.58 71.71 206.34 67.49 199.96 73.82 193.58 71.71"></polygon>
  <polygon class="cls-2" points="113.19 67.96 115.75 73.35 121.66 74.17 117.49 78.39 118.42 84.36 113.19 81.55 107.86 84.36 108.9 78.39 104.61 74.17 110.53 73.35 113.19 67.96"></polygon>
  <polygon class="cls-3" points="113.19 76.98 113.19 67.96 115.86 73.35 113.19 76.98"></polygon>
  <polygon class="cls-3" points="113.19 76.98 104.61 74.17 110.53 73.35 113.19 76.98"></polygon>
  <polygon class="cls-3" points="113.19 76.98 107.86 84.36 108.9 78.39 113.19 76.98"></polygon>
  <polygon class="cls-3" points="113.19 76.98 118.42 84.36 113.08 81.55 113.19 76.98"></polygon>
  <polygon class="cls-3" points="113.19 76.98 121.66 74.17 117.37 78.5 113.19 76.98"></polygon>
  <polygon class="cls-2" points="214.57 67.96 217.24 73.35 223.16 74.17 218.87 78.39 219.91 84.36 214.57 81.55 209.35 84.36 210.28 78.39 205.99 74.17 211.91 73.35 214.57 67.96"></polygon>
  <polygon class="cls-3" points="214.57 76.98 214.57 67.96 217.24 73.35 214.57 76.98"></polygon>
  <polygon class="cls-3" points="214.57 76.98 205.99 74.17 212.02 73.35 214.57 76.98"></polygon>
  <polygon class="cls-3" points="214.57 76.98 209.35 84.36 210.28 78.39 214.57 76.98"></polygon>
  <polygon class="cls-3" points="214.57 76.98 219.91 84.36 214.57 81.55 214.57 76.98"></polygon>
  <polygon class="cls-3" points="214.57 76.98 223.16 74.17 218.87 78.5 214.57 76.98"></polygon>
</svg>
